<svg width="140" height="41" viewBox="0 0 140 41" fill="none" xmlns="http://www.w3.org/2000/svg">
<rect y="0.5" width="40" height="40" rx="8" fill="url(#paint0_linear_3_117)"/>
<path d="M10.9668 18.9961V23.9979C10.9668 26.8273 10.9668 28.242 11.8455 29.121C12.7242 30.0001 14.1384 30.0001 16.9668 30.0001H22.9668C25.7952 30.0001 27.2094 30.0001 28.0881 29.121C28.9668 28.242 28.9668 26.8273 28.9668 23.9979V18.9961" stroke="white" stroke-width="1.5" stroke-linecap="round"/>
<path d="M22.9668 25.4932C22.2827 26.1004 21.1936 26.4932 19.9668 26.4932C18.74 26.4932 17.6509 26.1004 16.9668 25.4932" stroke="white" stroke-width="1.5" stroke-linecap="round"/>
<path d="M18.1038 16.9185C17.8218 17.9369 16.7963 19.6936 14.8478 19.9482C13.1273 20.173 11.8225 19.422 11.4892 19.108C11.1217 18.8534 10.2842 18.0387 10.0791 17.5295C9.87395 17.0203 10.1132 15.9171 10.2842 15.4673L10.9674 13.4889C11.1342 12.992 11.5247 11.8167 11.925 11.4191C12.3253 11.0216 13.1358 11.0043 13.4694 11.0043H20.4749C22.2781 11.0298 26.2209 10.9882 27.0003 11.0043C27.7797 11.0204 28.2481 11.6737 28.3848 11.9538C29.5477 14.7706 30 16.3838 30 17.0712C29.8482 17.8046 29.22 19.1873 27.0003 19.7955C24.6933 20.4275 23.3854 19.1981 22.9751 18.7261M17.1552 18.7261C17.48 19.125 18.4987 19.9279 19.9754 19.9482C21.4522 19.9686 22.7273 18.9383 23.1802 18.4206C23.3084 18.2679 23.5853 17.8147 23.8725 16.9185" stroke="white" stroke-width="1.5" stroke-linecap="round" stroke-linejoin="round"/>
<path d="M72.768 12.72L67.392 30H64.86L60.804 17.592C60.756 17.456 60.708 17.308 60.66 17.148C60.62 16.988 60.58 16.816 60.54 16.632C60.5 16.816 60.456 16.988 60.408 17.148C60.368 17.308 60.324 17.456 60.276 17.592L56.184 30H53.652L48.276 12.72H50.628C50.868 12.72 51.068 12.78 51.228 12.9C51.396 13.012 51.508 13.168 51.564 13.368L54.804 24.444C54.868 24.684 54.928 24.944 54.984 25.224C55.04 25.504 55.096 25.796 55.152 26.1C55.208 25.796 55.268 25.504 55.332 25.224C55.404 24.936 55.48 24.676 55.56 24.444L59.268 13.368C59.324 13.208 59.436 13.06 59.604 12.924C59.772 12.788 59.972 12.72 60.204 12.72H61.02C61.268 12.72 61.468 12.784 61.62 12.912C61.772 13.032 61.888 13.184 61.968 13.368L65.664 24.444C65.744 24.676 65.816 24.928 65.88 25.2C65.952 25.464 66.016 25.744 66.072 26.04C66.128 25.744 66.18 25.464 66.228 25.2C66.284 24.928 66.344 24.676 66.408 24.444L69.636 13.368C69.684 13.192 69.792 13.04 69.96 12.912C70.136 12.784 70.34 12.72 70.572 12.72H72.768ZM81.2484 22.5C81.2484 22.068 81.1844 21.668 81.0564 21.3C80.9364 20.924 80.7564 20.6 80.5164 20.328C80.2764 20.048 79.9764 19.832 79.6164 19.68C79.2644 19.52 78.8564 19.44 78.3924 19.44C77.4564 19.44 76.7204 19.708 76.1844 20.244C75.6484 20.78 75.3084 21.532 75.1644 22.5H81.2484ZM75.0924 24.084C75.1244 24.78 75.2324 25.384 75.4164 25.896C75.6004 26.4 75.8444 26.82 76.1484 27.156C76.4604 27.492 76.8284 27.744 77.2524 27.912C77.6844 28.072 78.1644 28.152 78.6924 28.152C79.1964 28.152 79.6324 28.096 80.0004 27.984C80.3684 27.864 80.6884 27.736 80.9604 27.6C81.2324 27.456 81.4644 27.328 81.6564 27.216C81.8484 27.096 82.0244 27.036 82.1844 27.036C82.3924 27.036 82.5524 27.116 82.6644 27.276L83.3964 28.224C83.0924 28.584 82.7484 28.888 82.3644 29.136C81.9804 29.384 81.5724 29.588 81.1404 29.748C80.7084 29.9 80.2644 30.008 79.8084 30.072C79.3524 30.144 78.9084 30.18 78.4764 30.18C77.6284 30.18 76.8404 30.04 76.1124 29.76C75.3924 29.472 74.7644 29.052 74.2284 28.5C73.7004 27.948 73.2844 27.264 72.9804 26.448C72.6844 25.632 72.5364 24.692 72.5364 23.628C72.5364 22.78 72.6684 21.988 72.9324 21.252C73.2044 20.516 73.5884 19.876 74.0844 19.332C74.5884 18.788 75.1964 18.36 75.9084 18.048C76.6284 17.728 77.4404 17.568 78.3444 17.568C79.0964 17.568 79.7924 17.692 80.4324 17.94C81.0724 18.18 81.6244 18.536 82.0884 19.008C82.5524 19.48 82.9124 20.06 83.1684 20.748C83.4324 21.428 83.5644 22.204 83.5644 23.076C83.5644 23.476 83.5204 23.744 83.4324 23.88C83.3444 24.016 83.1844 24.084 82.9524 24.084H75.0924ZM88.5504 26.928C88.9104 27.392 89.3024 27.72 89.7264 27.912C90.1584 28.096 90.6264 28.188 91.1304 28.188C92.1464 28.188 92.9384 27.82 93.5064 27.084C94.0744 26.348 94.3584 25.208 94.3584 23.664C94.3584 22.256 94.1104 21.228 93.6144 20.58C93.1264 19.932 92.4264 19.608 91.5144 19.608C90.8824 19.608 90.3304 19.752 89.8584 20.04C89.3944 20.32 88.9584 20.724 88.5504 21.252V26.928ZM88.5504 19.38C89.0544 18.828 89.6184 18.388 90.2424 18.06C90.8664 17.732 91.5784 17.568 92.3784 17.568C93.0904 17.568 93.7304 17.708 94.2984 17.988C94.8744 18.26 95.3624 18.656 95.7624 19.176C96.1624 19.696 96.4704 20.328 96.6864 21.072C96.9024 21.808 97.0104 22.64 97.0104 23.568C97.0104 24.56 96.8864 25.464 96.6384 26.28C96.3984 27.088 96.0504 27.784 95.5944 28.368C95.1384 28.944 94.5864 29.392 93.9384 29.712C93.2904 30.024 92.5664 30.18 91.7664 30.18C91.3744 30.18 91.0184 30.14 90.6984 30.06C90.3784 29.988 90.0824 29.88 89.8104 29.736C89.5384 29.592 89.2864 29.42 89.0544 29.22C88.8304 29.02 88.6144 28.792 88.4064 28.536L88.2984 29.484C88.2584 29.668 88.1864 29.8 88.0824 29.88C87.9784 29.96 87.8344 30 87.6504 30H85.9704V12.24H88.5504V19.38ZM109.03 15.06H103.642V30H100.846V15.06H95.4459V12.72H109.03V15.06ZM110.86 20.028C111.244 19.252 111.708 18.644 112.252 18.204C112.796 17.756 113.448 17.532 114.208 17.532C114.472 17.532 114.72 17.564 114.952 17.628C115.184 17.684 115.392 17.772 115.576 17.892L115.396 19.836C115.364 19.972 115.312 20.068 115.24 20.124C115.176 20.172 115.088 20.196 114.976 20.196C114.856 20.196 114.684 20.176 114.46 20.136C114.236 20.088 114 20.064 113.752 20.064C113.392 20.064 113.072 20.116 112.792 20.22C112.52 20.324 112.272 20.476 112.048 20.676C111.832 20.876 111.64 21.12 111.472 21.408C111.304 21.696 111.148 22.024 111.004 22.392V30H108.424V17.76H109.924C110.196 17.76 110.384 17.812 110.488 17.916C110.592 18.012 110.664 18.184 110.704 18.432L110.86 20.028ZM123.635 24.648C122.715 24.68 121.939 24.756 121.307 24.876C120.675 24.988 120.163 25.136 119.771 25.32C119.379 25.496 119.095 25.708 118.919 25.956C118.751 26.204 118.667 26.476 118.667 26.772C118.667 27.06 118.711 27.308 118.799 27.516C118.895 27.716 119.023 27.884 119.183 28.02C119.351 28.148 119.543 28.244 119.759 28.308C119.983 28.364 120.227 28.392 120.491 28.392C121.163 28.392 121.739 28.268 122.219 28.02C122.707 27.764 123.179 27.396 123.635 26.916V24.648ZM116.795 19.464C118.179 18.176 119.827 17.532 121.739 17.532C122.443 17.532 123.067 17.648 123.611 17.88C124.163 18.104 124.623 18.424 124.991 18.84C125.367 19.256 125.651 19.752 125.843 20.328C126.043 20.896 126.143 21.528 126.143 22.224V30H124.991C124.743 30 124.555 29.964 124.427 29.892C124.299 29.812 124.191 29.656 124.103 29.424L123.851 28.428C123.539 28.708 123.231 28.96 122.927 29.184C122.623 29.4 122.307 29.584 121.979 29.736C121.659 29.888 121.311 30 120.935 30.072C120.567 30.152 120.159 30.192 119.711 30.192C119.215 30.192 118.751 30.124 118.319 29.988C117.895 29.852 117.527 29.648 117.215 29.376C116.903 29.096 116.655 28.752 116.471 28.344C116.295 27.936 116.207 27.456 116.207 26.904C116.207 26.432 116.331 25.972 116.579 25.524C116.835 25.076 117.251 24.676 117.827 24.324C118.411 23.964 119.175 23.668 120.119 23.436C121.071 23.204 122.243 23.072 123.635 23.04V22.224C123.635 21.344 123.447 20.688 123.071 20.256C122.695 19.824 122.143 19.608 121.415 19.608C120.919 19.608 120.503 19.672 120.167 19.8C119.831 19.92 119.539 20.052 119.291 20.196C119.043 20.34 118.823 20.476 118.631 20.604C118.439 20.724 118.235 20.784 118.019 20.784C117.843 20.784 117.691 20.74 117.563 20.652C117.443 20.556 117.343 20.44 117.263 20.304L116.795 19.464ZM139.698 17.76L132.954 33.48C132.866 33.664 132.758 33.808 132.63 33.912C132.51 34.016 132.322 34.068 132.066 34.068H130.158L132.414 29.172L127.422 17.76H129.666C129.882 17.76 130.046 17.812 130.158 17.916C130.278 18.012 130.366 18.128 130.422 18.264L133.338 25.212C133.41 25.412 133.474 25.612 133.53 25.812C133.594 26.004 133.654 26.204 133.71 26.412C133.774 26.204 133.838 26 133.902 25.8C133.966 25.6 134.038 25.4 134.118 25.2L136.914 18.264C136.97 18.12 137.062 18 137.19 17.904C137.326 17.808 137.474 17.76 137.634 17.76H139.698Z" fill="#1A1A1A"/>
<defs>
<linearGradient id="paint0_linear_3_117" x1="3" y1="0.5" x2="27.5" y2="33.5" gradientUnits="userSpaceOnUse">
<stop stop-color="#365BEB"/>
<stop offset="1" stop-color="#9233EA"/>
</linearGradient>
</defs>
</svg>
