<svg width="24" height="24" viewBox="0 0 24 24" fill="none" xmlns="http://www.w3.org/2000/svg">
<path d="M2.9668 10.4961V15.4979C2.9668 18.3273 2.9668 19.742 3.84548 20.621C4.72416 21.5001 6.13837 21.5001 8.9668 21.5001H14.9668C17.7952 21.5001 19.2094 21.5001 20.0881 20.621C20.9668 19.742 20.9668 18.3273 20.9668 15.4979V10.4961" stroke="#808080" stroke-width="1.5" stroke-linecap="round"/>
<path d="M14.9668 16.9941C14.2827 17.6013 13.1936 17.9941 11.9668 17.9941C10.74 17.9941 9.65089 17.6013 8.9668 16.9941" stroke="#808080" stroke-width="1.5" stroke-linecap="round"/>
<path d="M10.1038 8.41799C9.82182 9.43639 8.79628 11.1931 6.84777 11.4477C5.12733 11.6725 3.82246 10.9215 3.48916 10.6075C3.12168 10.3529 2.28416 9.53823 2.07906 9.02903C1.87395 8.51983 2.11324 7.41657 2.28416 6.96677L2.96743 4.98839C3.13423 4.49147 3.5247 3.31617 3.92501 2.91864C4.32533 2.52111 5.13581 2.50381 5.4694 2.50381H12.4749C14.2781 2.52929 18.2209 2.48773 19.0003 2.50382C19.7797 2.5199 20.2481 3.17324 20.3848 3.4533C21.5477 6.27012 22 7.88333 22 8.57075C21.8482 9.30407 21.22 10.6868 19.0003 11.295C16.6933 11.927 15.3854 10.6976 14.9751 10.2256M9.15522 10.2256C9.47997 10.6245 10.4987 11.4274 11.9754 11.4477C13.4522 11.4681 14.7273 10.4378 15.1802 9.92013C15.3084 9.76737 15.5853 9.31418 15.8725 8.41799" stroke="#808080" stroke-width="1.5" stroke-linecap="round" stroke-linejoin="round"/>
</svg>
