<svg width="22" height="22" viewBox="0 0 22 22" fill="none" xmlns="http://www.w3.org/2000/svg">
<path d="M1.79289 20.2071C2.08579 20.5 2.55719 20.5 3.5 20.5H13.5C14.4428 20.5 14.9142 20.5 15.2071 20.2071M1.79289 20.2071C1.5 19.9142 1.5 19.4428 1.5 18.5V8.5C1.5 7.55719 1.5 7.08579 1.79289 6.79289M1.79289 20.2071L7.79289 14.2071M15.2071 20.2071C15.5 19.9142 15.5 19.4428 15.5 18.5V8.5C15.5 7.55719 15.5 7.08579 15.2071 6.79289M15.2071 20.2071L20.2071 15.2071C20.5 14.9142 20.5 14.4428 20.5 13.5V3.5C20.5 2.55719 20.5 2.08579 20.2071 1.79289M1.79289 6.79289C2.08579 6.5 2.55719 6.5 3.5 6.5H13.5C14.4428 6.5 14.9142 6.5 15.2071 6.79289M1.79289 6.79289L6.79289 1.79289C7.08579 1.5 7.55719 1.5 8.5 1.5H18.5C19.4428 1.5 19.9142 1.5 20.2071 1.79289M7.79289 14.2071C8.08579 14.5 8.55719 14.5 9.5 14.5H13M7.79289 14.2071C7.5 13.9142 7.5 13.4428 7.5 12.5V9.5M15.2071 6.79289L20.2071 1.79289" stroke="#808080" stroke-width="1.5" stroke-linecap="round" stroke-linejoin="round"/>
</svg>
