<svg width="248" height="213" viewBox="0 0 248 213" fill="none" xmlns="http://www.w3.org/2000/svg">
<g clip-path="url(#clip0_55_2683)">
<path d="M102.88 185.044L105.581 176.247C102.331 172.67 98.2566 169.94 93.712 168.295C98.1521 175.651 93.8497 185.246 95.6425 193.649C96.2218 196.266 97.3824 198.718 99.0384 200.825C100.694 202.932 102.803 204.64 105.209 205.821L109.308 210.9C111.457 207.145 112.767 202.969 113.146 198.66C113.526 194.351 112.967 190.01 111.508 185.938C110.666 183.661 109.542 181.499 108.16 179.504C105.724 182.368 102.88 185.044 102.88 185.044Z" fill="#F2F2F2"/>
<path d="M88.0264 186.169L86.5207 177.09C82.0164 175.338 77.1524 174.712 72.3511 175.266C79.6056 179.87 80.0343 190.377 85.3865 197.099C87.0719 199.182 89.2045 200.86 91.6263 202.007C94.0482 203.154 96.6971 203.742 99.3769 203.726L105.311 206.444C105.56 202.125 104.87 197.803 103.288 193.777C101.706 189.751 99.2696 186.115 96.1472 183.121C94.3789 181.458 92.4083 180.025 90.2819 178.855C89.3789 182.505 88.0264 186.169 88.0264 186.169Z" fill="#F2F2F2"/>
<path d="M176.437 208.642L172.276 208.642L170.297 192.593L176.438 192.593L176.437 208.642Z" fill="#FFB6B6"/>
<path d="M177.498 212.676L164.082 212.676V212.506C164.082 211.121 164.632 209.793 165.612 208.814C166.591 207.834 167.919 207.284 169.304 207.284H169.304L171.755 205.425L176.327 207.284L177.499 207.284L177.498 212.676Z" fill="#2F2E41"/>
<path d="M243.651 193.466L240.814 196.51L227.724 187.015L231.911 182.523L243.651 193.466Z" fill="#FFB6B6"/>
<path d="M247.325 195.439L238.178 205.253L238.053 205.138C237.04 204.193 236.444 202.885 236.395 201.501C236.346 200.117 236.85 198.77 237.794 197.757L238.105 194.697L242.583 192.619L243.381 191.763L247.325 195.439Z" fill="#2F2E41"/>
<path d="M237.494 184.446L233.097 193.644L206.09 175.763L202.161 170.41L189.279 152.858L184.043 161.167L180.399 169.853C179.212 170.628 178.211 171.657 177.469 172.865C176.728 174.073 176.264 175.431 176.111 176.841L175.944 178.378L178.247 199.077L169.496 201.764L164.47 173.959L166.113 167.933L167.804 159.476L176.32 132.75H199.11L212.181 160.573L213.137 166.242L216.843 170.495L237.494 184.446Z" fill="#2F2E41"/>
<path d="M190.133 89.0244L193.97 91.9457L198.596 93.3674C198.596 93.3674 200.509 120.272 202.232 121.995C203.956 123.719 202.402 123.765 202.748 126.004C203.094 128.243 203.936 132.832 203.936 132.832C192.303 138.99 182.274 139.155 174.218 131.95C174.115 131.504 174.167 131.036 174.366 130.624C174.565 130.212 174.899 129.881 175.312 129.685C176.812 128.889 173.93 125.176 175.156 124.555C176.381 123.934 174.658 118.549 174.658 118.549L175.788 107.312L174.895 105.515L177.075 94.5245L180.857 93.1432L182.368 89.503L190.133 89.0244Z" fill="#3F3D56"/>
<path d="M192.537 136.842C192.52 136.356 192.609 135.872 192.799 135.425C192.989 134.977 193.275 134.577 193.636 134.252C193.998 133.927 194.426 133.685 194.891 133.543C195.356 133.401 195.847 133.363 196.328 133.432L201.735 122.923L204.747 128.275L199.151 137.434C198.983 138.235 198.526 138.946 197.868 139.433C197.21 139.92 196.396 140.149 195.581 140.076C194.766 140.003 194.006 139.633 193.444 139.037C192.883 138.441 192.56 137.66 192.537 136.842Z" fill="#FFB6B6"/>
<path d="M201.642 134.272L213.238 116.298L213.2 116.216C213.156 116.121 210.53 110.45 207.986 105.255C207.594 104.455 207.204 103.666 206.826 102.911C206.663 102.585 206.502 102.266 206.343 101.953C205.275 99.8466 204.341 98.1052 203.784 97.278C202.551 95.4078 200.715 94.0154 198.582 93.3322L198.529 93.3184L198.477 93.3397C197.434 93.78 196.572 94.5628 196.033 95.5589C195.494 96.555 195.31 97.7051 195.513 98.8194C196.519 104.194 198.76 109.262 202.06 113.622L203.94 116.1L197.407 130.303L201.642 134.272Z" fill="#3F3D56"/>
<path d="M161.765 65.3779C162.084 65.7445 162.319 66.1767 162.454 66.644C162.588 67.1113 162.618 67.6023 162.542 68.0825C162.466 68.5627 162.285 69.0204 162.013 69.4233C161.741 69.8262 161.384 70.1646 160.967 70.4145L163.384 81.9828L157.674 79.722L156.254 69.0832C155.881 68.3548 155.787 67.5147 155.992 66.7221C156.196 65.9295 156.685 65.2395 157.364 64.7828C158.043 64.326 158.866 64.1343 159.678 64.244C160.489 64.3537 161.232 64.7571 161.765 65.3779Z" fill="#FFB6B6"/>
<path d="M156.311 73.1084L158.62 94.3729L158.701 94.4131C158.769 94.4462 161.694 95.8811 165.285 97.5899C165.891 97.8782 165.804 99.1269 166.437 99.4254C166.873 99.631 168.025 98.885 168.466 99.0911C172.391 100.927 176.36 102.711 177.942 103.195C180.077 103.872 182.38 103.798 184.467 102.985L184.517 102.962L184.544 102.913C185.077 101.914 185.254 100.763 185.045 99.6498C184.837 98.5366 184.255 97.5277 183.396 96.7895C179.23 93.2476 174.298 90.7224 168.989 89.4132L165.968 88.672L162.099 73.5241L156.311 73.1084Z" fill="#3F3D56"/>
<path d="M186.043 87.8184C190.234 87.8184 193.631 84.4209 193.631 80.23C193.631 76.039 190.234 72.6416 186.043 72.6416C181.852 72.6416 178.455 76.039 178.455 80.23C178.455 84.4209 181.852 87.8184 186.043 87.8184Z" fill="#FFB6B6"/>
<path d="M178.509 75.1453C179.133 73.3298 182.24 72.0705 187.276 71.8954C192.312 71.7203 193.589 77.6553 193.589 77.6553C196.951 80.3826 189.999 87.6842 189.663 87.4213L189.814 86.0494C190.065 83.7771 191.129 82.0042 189.776 79.636L188.476 79.651C186.798 79.9737 185.12 80.2964 183.442 80.6191L185.428 78.8697L185.372 78.7831C184.527 79.2233 183.608 79.5025 182.66 79.6065C181.592 79.6693 180.425 79.2443 179.913 78.3048C179.777 78.0466 179.693 77.7636 179.668 77.4726C178.228 78.0479 177.57 79.8231 177.57 79.8231C177.57 79.8231 177.885 76.9608 178.509 75.1453Z" fill="#2F2E41"/>
<path d="M30.5736 75.6008C30.4706 75.4702 30.3597 75.3461 30.2416 75.2291C30.2705 75.1894 30.2993 75.1461 30.3282 75.1064L30.5736 75.6008Z" fill="#2F2E41"/>
<path d="M32.0494 106.121C30.8081 108.326 28.3291 109.556 25.8717 110.159C23.1116 110.882 20.205 110.826 17.4749 109.997C17.1285 109.885 16.7821 109.755 16.4465 109.61C16.6078 109.182 16.7357 108.742 16.829 108.293C16.9546 107.687 17.0175 107.069 17.0166 106.449C16.7432 106.983 16.389 107.471 15.9666 107.896C15.6407 108.239 15.2706 108.536 14.866 108.78C13.6111 108.019 12.5245 107.01 11.6725 105.814C11.7266 105.681 11.7808 105.547 11.8313 105.414C12.0933 104.716 12.3008 104 12.4519 103.27C12.657 102.284 12.7597 101.279 12.7587 100.272C12.3137 101.14 11.7367 101.933 11.0482 102.624C10.8418 102.845 10.6225 103.054 10.3915 103.249C10.0338 102.162 9.89547 101.015 9.98466 99.875C10.0739 98.7346 10.3888 97.6233 10.9111 96.6056C12.3401 93.9642 15.1114 92.3945 17.5795 90.6878C20.0513 88.9809 22.5231 86.6716 22.7324 83.6729C22.8731 81.6486 21.9349 79.6206 22.3102 77.6288C22.468 76.7888 22.8533 76.0083 23.4242 75.3722C23.995 74.7361 24.7294 74.2689 25.5475 74.0214C26.3655 73.7739 27.2358 73.7556 28.0635 73.9686C28.8912 74.1816 29.6446 74.6176 30.2416 75.2292C28.8415 77.2138 27.4486 79.267 26.8821 81.6269C26.3048 84.0302 26.7775 86.8484 28.6719 88.4397C29.3214 88.9882 30.1189 89.3779 30.6205 90.0635C31.288 90.9728 31.2916 92.1852 31.3999 93.3039C31.6164 95.4798 32.3272 97.5726 32.7097 99.7269C33.0958 101.878 33.1175 104.212 32.0494 106.121Z" fill="#2F2E41"/>
<path d="M6.60339 195.605L9.89677 198.15L21.2786 186.658L16.4179 182.902L6.60339 195.605Z" fill="#A0616A"/>
<path d="M6.74342 193.118L12.1894 196.83L10.466 199.06L12.7741 206.303C12.8882 206.661 12.8849 207.046 12.7647 207.401C12.6446 207.757 12.4139 208.065 12.1064 208.28C11.7988 208.496 11.4305 208.607 11.0551 208.598C10.6798 208.589 10.3171 208.461 10.02 208.231L3.82222 203.442L4.45869 200.41L2.33682 202.294L0 200.489L6.74342 193.118Z" fill="#2F2E41"/>
<path d="M23.3116 82.0118C23.3112 83.2985 23.6266 84.5657 24.2301 85.702C24.8337 86.8384 25.707 87.8093 26.7734 88.5293C27.8398 89.2494 29.0666 89.6967 30.3462 89.832C31.6258 89.9672 32.919 89.7863 34.1124 89.3051C35.3057 88.8238 36.3627 88.057 37.1905 87.072C38.0183 86.0869 38.5917 84.9136 38.8602 83.6552C39.1287 82.3969 39.0843 81.0918 38.7307 79.8546C38.3771 78.6174 37.7252 77.4859 36.8323 76.5595L36.7945 76.5218C36.7317 76.4557 36.6688 76.3897 36.6027 76.3268L36.6015 76.3266L36.6005 76.3259L36.5998 76.3249L36.5996 76.3237C36.5178 76.2482 36.4361 76.1727 36.3512 76.1004C34.9677 74.8867 33.0232 73.5693 31.0391 73.5693C26.6968 73.5693 23.3116 77.6694 23.3116 82.0118Z" fill="#2F2E41"/>
<path d="M68.1171 77.9752C68.1548 78.3945 68.1 78.8169 67.9567 79.2127C67.8134 79.6085 67.5851 79.9681 67.2878 80.2661C66.9906 80.5641 66.6315 80.7934 66.2361 80.9376C65.8406 81.0819 65.4184 81.1377 64.999 81.1011L45.5336 98.6763L42.1838 93.3858L62.371 77.7735C62.4792 77.0731 62.8405 76.4367 63.3865 75.9849C63.9326 75.5331 64.6254 75.2972 65.3337 75.3221C66.0419 75.347 66.7165 75.6308 67.2295 76.1197C67.7425 76.6087 68.0584 77.2689 68.1171 77.9752Z" fill="#A0616A"/>
<path d="M37.2145 103.981C37.2145 103.981 37.9387 105.319 40.4127 103.253C42.3933 101.6 51.8821 94.421 53.9263 91.4793C54.3931 91.6643 54.9082 91.6887 55.3903 91.5487C55.8725 91.4087 56.2944 91.1122 56.5895 90.7061L50.9885 85.8008C49.3127 85.9937 49.3486 87.1195 49.5231 87.7586L45.2982 89.6729L34.3881 96.6452L36.6738 103.023L37.2145 103.981Z" fill="#365BEB"/>
<path d="M26.6452 116.305L26.2372 118.247L25.8907 125.414L41.1428 126.252L40.6692 115.23L39.1908 112.801L26.6452 116.305Z" fill="#A0616A"/>
<path d="M33.1091 90.4216C36.7496 90.4216 39.7007 87.4704 39.7007 83.8299C39.7007 80.1895 36.7496 77.2383 33.1091 77.2383C29.4686 77.2383 26.5175 80.1895 26.5175 83.8299C26.5175 87.4704 29.4686 90.4216 33.1091 90.4216Z" fill="#A0616A"/>
<path d="M21.4064 108.143L21.3658 102.664C21.3649 100.692 22.0321 98.7788 23.2585 97.2352C24.4849 95.6916 26.1983 94.6091 28.119 94.1644L28.1438 94.1586L29.4472 92.4023L34.7428 92.9321L35.7134 94.9158L39.5506 97.2006L41.028 101.95C41.6688 102.377 42.2149 102.931 42.6325 103.578C43.05 104.226 43.33 104.952 43.455 105.711C43.9566 108.915 41.7134 112.121 41.4465 112.489L40.759 116.361L25.8026 119L25.6812 119.015L21.4064 108.143Z" fill="#365BEB"/>
<path d="M41.1753 82.6554C40.4064 83.1424 39.6087 83.5822 38.7865 83.9725C37.952 84.3733 37.0791 84.6889 36.1812 84.9143C35.9243 84.3506 35.6099 83.8149 35.243 83.3157C35.3374 83.9072 35.3398 84.5097 35.2502 85.1019C33.7619 85.342 32.2375 85.217 30.8082 84.7375L29.5669 82.6554L29.4731 84.9792C28.4447 85.1669 27.4199 85.3437 26.3915 85.5277C26.3301 85.5349 26.2688 85.5494 26.2111 85.5602C25.5723 82.6807 26.4781 79.5088 28.4916 77.5892C29.4913 76.646 30.7384 76.0062 32.0876 75.7443C33.4368 75.4824 34.8326 75.6091 36.1126 76.1097C36.275 76.1746 36.441 76.2468 36.5998 76.3226L36.6 76.324L36.6008 76.3252L36.602 76.326L36.6034 76.3262C36.6972 76.3731 36.7766 76.4849 36.8812 76.4741C41.3846 75.9725 41.5289 79.4655 41.1753 82.6554Z" fill="#2F2E41"/>
<path d="M30.2094 187.105L33.5078 189.643L44.8666 178.128L39.9985 174.383L30.2094 187.105Z" fill="#A0616A"/>
<path d="M30.6436 184.849L36.097 188.549L34.3781 190.783L36.7009 198.021C36.8156 198.379 36.8131 198.764 36.6937 199.12C36.5743 199.475 36.3442 199.784 36.0371 200C35.73 200.216 35.3619 200.328 34.9865 200.32C34.6112 200.312 34.2482 200.184 33.9507 199.955L27.7432 195.178L28.3736 192.145L26.2555 194.034L23.915 192.233L30.6436 184.849Z" fill="#2F2E41"/>
<path d="M19.5061 173.052L19.5059 173.009L21.0692 170.315L19.4729 166.809L19.425 157.799L19.6838 156.447C20.0318 154.628 19.9305 152.751 19.3888 150.98L19.3596 145.497C19.3035 144.123 21.4317 142.915 20.9354 141.769C16.2445 130.944 25.7257 122.686 25.7897 122.619L25.9835 122.418L27.0347 123.214L28.0353 123.215L41.5375 125.676L41.635 125.858C42.1661 126.854 43.191 130.287 43.2518 131.841C43.9247 132.62 51.5899 141.49 52.2713 142.106C56.8759 146.272 59.5122 153.168 60.6738 156.908C60.9623 157.832 61.0205 158.813 60.8432 159.764C60.6659 160.716 60.2587 161.61 59.6568 162.369L42.2252 181.462L37.5343 177.132L46.9663 159.945L46.2862 158.201C45.0658 157.976 43.9614 157.334 43.1613 156.385L41.2514 154.118C40.7226 153.492 40.3866 152.727 40.284 151.914L39.1258 151.774L34.9769 147.418L32.0984 173.485L31.3159 175.544L17.6878 191.566L11.9143 187.957L19.5061 173.052Z" fill="#2F2E41"/>
<path d="M17.4249 61.1237C17.1631 61.4533 16.9767 61.8363 16.879 62.2458C16.7812 62.6552 16.7743 63.0811 16.859 63.4935C16.9436 63.9058 17.1176 64.2946 17.3687 64.6325C17.6198 64.9703 17.942 65.249 18.3125 65.4488L13.979 78.2779L17.5175 91.8734L23.2234 89.2939L19.7024 79.0392L22.3366 64.1127C22.6311 63.4681 22.679 62.7378 22.471 62.0603C22.2631 61.3827 21.8138 60.805 21.2084 60.4366C20.603 60.0682 19.8834 59.9346 19.1861 60.0612C18.4888 60.1879 17.8622 60.5659 17.4249 61.1237Z" fill="#A0616A"/>
<path d="M22.6478 103.075C22.6478 103.075 21.3076 103.794 20.3756 100.709C19.6295 98.2395 14.5516 84.8293 14.4601 81.2483C13.9684 81.1463 13.5247 80.8837 13.1988 80.5017C12.8729 80.1198 12.6833 79.6403 12.6599 79.1388L20.035 78.1182C21.3291 79.2002 20.6805 80.1211 20.1835 80.5592L22.6954 84.814L27.9456 96.3005L23.6257 102.572L22.6478 103.075Z" fill="#365BEB"/>
<path d="M26.3899 85.5272C27.1473 83.2432 28.5053 81.2052 30.3216 79.6268C32.1379 78.0484 34.3454 76.9879 36.7127 76.5564C36.7222 76.5533 36.7536 76.5407 36.7945 76.5219C36.8196 76.5062 36.8511 76.4904 36.8825 76.4747C36.7882 76.4213 36.697 76.3741 36.6027 76.3269L36.6015 76.3267L36.6004 76.326L36.5998 76.325L36.5996 76.3238C36.5178 76.2483 36.436 76.1728 36.3511 76.1005L36.1122 76.11C36.1122 76.11 27.7137 74.7799 26.3899 85.5272Z" fill="#FD6584"/>
<path d="M134.761 158.98C135.678 157.603 135.135 155.631 133.549 154.575C131.963 153.52 129.935 153.782 129.018 155.16C128.102 156.537 128.644 158.51 130.23 159.565C131.816 160.62 133.844 160.358 134.761 158.98Z" fill="#F2F2F2"/>
<path d="M116.155 107.559C117.071 106.181 116.529 104.209 114.943 103.154C113.357 102.099 111.328 102.36 110.412 103.738C109.495 105.116 110.038 107.088 111.623 108.143C113.209 109.198 115.238 108.936 116.155 107.559Z" fill="#F2F2F2"/>
<path d="M193.964 186.721C194.881 185.343 194.338 183.371 192.752 182.316C191.166 181.261 189.138 181.522 188.221 182.9C187.305 184.278 187.847 186.25 189.433 187.305C191.019 188.36 193.047 188.098 193.964 186.721Z" fill="#F2F2F2"/>
<path d="M36.6533 21.292C37.5699 19.9143 37.0274 17.9421 35.4415 16.887C33.8557 15.8319 31.827 16.0935 30.9104 17.4712C29.9938 18.849 30.5363 20.8211 32.1222 21.8762C33.708 22.9313 35.7367 22.6697 36.6533 21.292Z" fill="#F2F2F2"/>
<path d="M110.065 5.05371C110.982 3.67598 110.439 1.70381 108.853 0.648731C107.267 -0.406346 105.239 -0.144793 104.322 1.23293C103.405 2.61066 103.948 4.58285 105.534 5.63793C107.12 6.693 109.148 6.43143 110.065 5.05371Z" fill="#F2F2F2"/>
<path d="M75.3211 141.293C76.2377 139.915 75.6952 137.943 74.1094 136.888C72.5235 135.833 70.4948 136.094 69.5782 137.472C68.6616 138.85 69.2042 140.822 70.79 141.877C72.3759 142.932 74.4045 142.671 75.3211 141.293Z" fill="#E6E6E6"/>
<path d="M226.753 213H6.75699C6.65036 213 6.5482 212.957 6.47291 212.882C6.39762 212.806 6.35535 212.704 6.35535 212.597C6.35535 212.491 6.39762 212.388 6.47291 212.313C6.5482 212.237 6.65036 212.195 6.75699 212.194H226.753C226.86 212.194 226.962 212.237 227.038 212.312C227.113 212.388 227.156 212.49 227.156 212.597C227.156 212.704 227.113 212.806 227.038 212.882C226.962 212.958 226.86 213 226.753 213Z" fill="#CCCCCC"/>
<path d="M47.7036 79.2177C45.8531 79.2123 44.0694 78.5251 42.6936 77.2875C41.3177 76.0499 40.4463 74.3486 40.2458 72.509L35.9509 32.6208C35.7399 30.6403 36.3231 28.657 37.5726 27.106C38.822 25.555 40.6357 24.563 42.6157 24.3476L170.14 10.6166C172.121 10.4055 174.104 10.9886 175.655 12.2381C177.206 13.4875 178.198 15.3012 178.414 17.2812L182.709 57.1692C182.92 59.1497 182.336 61.1331 181.087 62.6842C179.837 64.2352 178.024 65.2273 176.044 65.4428L48.5192 79.1738C48.2483 79.203 47.9761 79.2177 47.7036 79.2177Z" fill="#E6E6E6"/>
<path d="M168.736 12.4688C168.496 12.4688 168.257 12.4818 168.018 12.5074L45.0917 25.7433C44.2322 25.8359 43.3993 26.0968 42.6406 26.5113C41.8819 26.9257 41.2123 27.4855 40.6699 28.1587C40.1276 28.832 39.7232 29.6054 39.4797 30.435C39.2363 31.2645 39.1587 32.1338 39.2512 32.9934L41.4228 53.1612C41.7738 56.4216 42.7635 59.5809 44.3355 62.4588C45.9075 65.3366 48.031 67.8767 50.5846 69.9339C53.1383 71.9911 56.0722 73.5252 59.2187 74.4486C62.3652 75.3719 65.6628 75.6665 68.9232 75.3154L155.361 66.0083C158.612 65.6583 161.761 64.6715 164.63 63.1043C167.5 61.5371 170.032 59.4201 172.083 56.8742C174.134 54.3283 175.663 51.4034 176.584 48.2664C177.504 45.1294 177.798 41.8418 177.448 38.5914L175.268 18.3479C175.095 16.7355 174.332 15.2438 173.126 14.1589C171.921 13.074 170.357 12.4722 168.736 12.4688Z" fill="white"/>
<path d="M142.849 33.4576L74.1438 40.8554C73.9473 40.8768 73.7486 40.8593 73.5589 40.8038C73.3692 40.7484 73.1923 40.6561 73.0384 40.5322C72.8844 40.4083 72.7564 40.2553 72.6616 40.0819C72.5668 39.9085 72.5071 39.7181 72.4859 39.5217C72.4648 39.3252 72.4826 39.1265 72.5383 38.9369C72.594 38.7473 72.6865 38.5705 72.8106 38.4167C72.9347 38.2629 73.0878 38.135 73.2614 38.0405C73.4349 37.9459 73.6253 37.8865 73.8219 37.8656L142.527 30.4678C142.724 30.4464 142.922 30.4639 143.112 30.5194C143.302 30.5748 143.479 30.6672 143.633 30.791C143.787 30.9149 143.915 31.0679 144.009 31.2413C144.104 31.4147 144.164 31.6051 144.185 31.8015C144.206 31.998 144.188 32.1967 144.133 32.3863C144.077 32.5759 143.984 32.7527 143.86 32.9065C143.736 33.0603 143.583 33.1882 143.41 33.2827C143.236 33.3773 143.046 33.4367 142.849 33.4576Z" fill="#365BEB"/>
<path d="M143.837 42.6332L75.1316 50.0309C74.7352 50.0736 74.338 49.9571 74.0275 49.7069C73.7169 49.4567 73.5185 49.0935 73.4758 48.697C73.4331 48.3005 73.5497 47.9034 73.7998 47.5928C74.05 47.2823 74.4133 47.0839 74.8097 47.0412L143.515 39.6434C143.912 39.6007 144.309 39.7173 144.619 39.9674C144.93 40.2176 145.128 40.5809 145.171 40.9773C145.214 41.3738 145.097 41.771 144.847 42.0815C144.597 42.392 144.233 42.5905 143.837 42.6332Z" fill="#365BEB"/>
<path d="M84.1263 58.3443L76.1197 59.2064C75.7232 59.2491 75.326 59.1326 75.0155 58.8824C74.705 58.6322 74.5065 58.269 74.4638 57.8725C74.4212 57.476 74.5377 57.0788 74.7879 56.7683C75.038 56.4578 75.4013 56.2594 75.7978 56.2167L83.8044 55.3546C84.0008 55.3331 84.1996 55.3507 84.3892 55.4061C84.5789 55.4616 84.7558 55.5539 84.9098 55.6777C85.0637 55.8016 85.1918 55.9546 85.2866 56.128C85.3814 56.3014 85.4411 56.4918 85.4622 56.6883C85.4834 56.8847 85.4656 57.0835 85.4099 57.2731C85.3542 57.4627 85.2616 57.6394 85.1375 57.7932C85.0135 57.947 84.8603 58.0749 84.6868 58.1694C84.5133 58.264 84.3228 58.3234 84.1263 58.3443Z" fill="#365BEB"/>
<path d="M45.0004 34.3035C46.4951 34.3035 47.7068 33.0918 47.7068 31.597C47.7068 30.1023 46.4951 28.8906 45.0004 28.8906C43.5057 28.8906 42.2939 30.1023 42.2939 31.597C42.2939 33.0918 43.5057 34.3035 45.0004 34.3035Z" fill="#3F3D56"/>
<path d="M166.113 20.7712C167.607 20.7712 168.819 19.5595 168.819 18.0648C168.819 16.5701 167.607 15.3584 166.113 15.3584C164.618 15.3584 163.406 16.5701 163.406 18.0648C163.406 19.5595 164.618 20.7712 166.113 20.7712Z" fill="#3F3D56"/>
<path d="M129.523 76.3332C129.274 76.1148 129.077 75.8437 128.946 75.5397C128.816 75.2357 128.754 74.9063 128.766 74.5755C128.902 70.6445 128.255 66.7257 126.862 63.0473C126.744 62.7381 126.696 62.4064 126.722 62.0764C126.748 61.7465 126.848 61.4264 127.013 61.1396C127.171 60.864 127.388 60.6264 127.648 60.4435C127.908 60.2606 128.205 60.1368 128.518 60.0808C131.664 58.1825 134.888 57.6496 138.105 58.4972C138.623 58.4208 139.152 58.5318 139.596 58.8103C140.04 59.0888 140.371 59.5164 140.528 60.0165C141.83 64.2439 142.555 68.628 142.681 73.0496C142.693 73.5801 142.514 74.0971 142.175 74.5057C141.837 74.9144 141.362 75.1872 140.839 75.2741L131.321 76.8465C131.002 76.8999 130.675 76.8815 130.364 76.7927C130.053 76.7039 129.766 76.547 129.523 76.3332Z" fill="#365BEB"/>
<path d="M130.368 64.8806L138.379 63.5571C138.445 63.5464 138.508 63.5228 138.565 63.4877C138.621 63.4525 138.671 63.4065 138.71 63.3523C138.749 63.2981 138.776 63.2367 138.792 63.1717C138.807 63.1068 138.809 63.0394 138.798 62.9736C138.787 62.9077 138.763 62.8447 138.728 62.788C138.693 62.7314 138.647 62.6822 138.592 62.6434C138.538 62.6046 138.477 62.5769 138.412 62.5619C138.347 62.5468 138.279 62.5448 138.214 62.5558L130.203 63.8793C130.07 63.9015 129.952 63.9753 129.874 64.0847C129.796 64.194 129.764 64.3298 129.786 64.4624C129.808 64.595 129.882 64.7135 129.991 64.7919C130.1 64.8703 130.236 64.9022 130.368 64.8806Z" fill="white"/>
<path d="M131.03 68.8853L139.041 67.5618C139.173 67.5399 139.292 67.4661 139.371 67.3567C139.449 67.2473 139.481 67.1112 139.459 66.9785C139.437 66.8457 139.363 66.727 139.254 66.6487C139.144 66.5703 139.008 66.5386 138.875 66.5605L130.865 67.8839C130.799 67.8947 130.736 67.9183 130.679 67.9534C130.622 67.9886 130.573 68.0346 130.534 68.0888C130.495 68.143 130.467 68.2043 130.452 68.2693C130.437 68.3343 130.435 68.4017 130.446 68.4675C130.456 68.5334 130.48 68.5964 130.515 68.6531C130.551 68.7097 130.597 68.7588 130.651 68.7977C130.705 68.8365 130.767 68.8642 130.832 68.8792C130.897 68.8942 130.964 68.8963 131.03 68.8853Z" fill="white"/>
<path d="M131.692 72.8901L139.702 71.5667C139.835 71.5448 139.954 71.471 140.032 71.3616C140.111 71.2522 140.142 71.1161 140.12 70.9833C140.098 70.8505 140.025 70.7319 139.915 70.6535C139.806 70.5751 139.67 70.5434 139.537 70.5654L131.526 71.8888C131.461 71.8997 131.398 71.9234 131.341 71.9586C131.284 71.9938 131.235 72.0398 131.196 72.0939C131.158 72.1481 131.13 72.2094 131.115 72.2743C131.1 72.3392 131.097 72.4064 131.108 72.4722C131.119 72.5379 131.143 72.6009 131.178 72.6575C131.213 72.7141 131.259 72.7632 131.313 72.802C131.368 72.8408 131.429 72.8686 131.494 72.8837C131.559 72.8988 131.626 72.901 131.692 72.8901Z" fill="white"/>
</g>
<defs>
<clipPath id="clip0_55_2683">
<rect width="247.325" height="213" fill="white"/>
</clipPath>
</defs>
</svg>
